<?xml version="1.0" encoding="UTF-8" standalone="no"?>
<!-- Created with Inkscape (http://www.inkscape.org/) -->

<svg
   width="45.89513mm"
   height="63.984661mm"
   viewBox="0 0 45.89513 63.984661"
   version="1.1"
   id="svg1"
   xml:space="preserve"
   sodipodi:docname="GrowBio_Logo.svg"
   inkscape:version="1.4 (86a8ad7, 2024-10-11)"
   xmlns:inkscape="http://www.inkscape.org/namespaces/inkscape"
   xmlns:sodipodi="http://sodipodi.sourceforge.net/DTD/sodipodi-0.dtd"
   xmlns="http://www.w3.org/2000/svg"
   xmlns:svg="http://www.w3.org/2000/svg"><sodipodi:namedview
     id="namedview1"
     pagecolor="#505050"
     bordercolor="#eeeeee"
     borderopacity="1"
     inkscape:showpageshadow="0"
     inkscape:pageopacity="0"
     inkscape:pagecheckerboard="0"
     inkscape:deskcolor="#505050"
     inkscape:document-units="mm"
     inkscape:zoom="0.64327147"
     inkscape:cx="-150.7917"
     inkscape:cy="102.60054"
     inkscape:window-width="1920"
     inkscape:window-height="1051"
     inkscape:window-x="-9"
     inkscape:window-y="-9"
     inkscape:window-maximized="1"
     inkscape:current-layer="g406" /><defs
     id="defs1" /><g
     id="g373"
     transform="translate(-3226.5966,921.0715)"><g
       id="g406"
       transform="translate(448.48992,-156.93565)"><g
         id="g405"
         transform="matrix(0.86870167,0,0,0.86870167,-2709.7915,-125.58074)"
         style="stroke-width:1.69447"><g
           id="g404"
           style="stroke-width:1.69447"><g
             id="g403"
             transform="translate(209.02083)"
             style="stroke-width:1.69447"><g
               id="g392"
               style="fill:#bf7222;fill-opacity:1;stroke:none;stroke-width:1.69447"><path
                 id="path391"
                 style="font-variation-settings:'wght' 700;fill:#bf7222;fill-opacity:1;stroke:none;stroke-width:0.169447;stroke-dasharray:none"
                 d="m 6156.3074,-693.62536 a 26.402916,26.314497 0 0 1 -1.9719,2.39675 16.741463,16.685215 0 0 1 -0.2388,0.78393 15.732732,15.679844 0 0 1 2.5141,4.66948 20.723143,20.653635 0 0 0 1.7115,-5.10821 19.466665,19.401344 0 0 0 -2.0149,-2.74195 z m -1.9719,2.39675 a 16.741463,16.685215 0 0 0 0.3384,-3.31039 16.741463,16.685215 0 0 0 -0.025,-0.74569 19.466665,19.401344 0 0 0 -1.2247,-1.00097 22.567598,22.491951 0 0 1 -2.3224,2.91145 15.732732,15.679844 0 0 1 2.7854,2.6696 26.402916,26.314497 0 0 0 0.4486,-0.524 z m 1.9719,-2.39675 a 19.466665,19.401344 0 0 0 -1.6588,-1.65933 16.741463,16.685215 0 0 1 0.025,0.74569 16.741463,16.685215 0 0 1 -0.3384,3.31039 26.402916,26.314497 0 0 0 1.9719,-2.39675 z m -2.4205,2.92075 a 15.732732,15.679844 0 0 0 -2.7854,-2.6696 22.567598,22.491951 0 0 1 -1.8815,1.86758 11.732494,11.692925 0 0 1 -0.8356,2.22984 10.82495,10.788404 0 0 1 1.8361,1.83503 26.402916,26.314497 0 0 0 3.6664,-3.26285 z m -6.6916,0.61082 a 22.567598,22.491951 0 0 1 -4.6436,2.43137 6.9407964,6.9171848 0 0 1 3.4897,1.47381 11.732494,11.692925 0 0 0 2.343,-3.08818 10.82495,10.788404 0 0 0 -1.1891,-0.817 z m 2.0247,-1.41284 a 22.567598,22.491951 0 0 1 -2.0247,1.41284 10.82495,10.788404 0 0 1 1.1891,0.817 11.732494,11.692925 0 0 0 0.8356,-2.22984 z m 1.0005,4.06487 a 10.82495,10.788404 0 0 0 -1.8361,-1.83503 11.732494,11.692925 0 0 1 -2.343,3.08818 6.9407964,6.9171848 0 0 1 0.8408,0.78549 26.402916,26.314497 0 0 0 3.3383,-2.03864 z m -9.4506,4.22351 a 11.732494,11.692925 0 0 0 5.2715,-2.97036 6.9407964,6.9171848 0 0 0 -3.4897,-1.47381 22.567598,22.491951 0 0 1 -4.6586,1.12551 6.9407964,6.9171848 0 0 0 -2.6733,3.36207 11.732494,11.692925 0 0 0 2.713,0.32866 11.732494,11.692925 0 0 0 2.4149,-0.27078 26.402916,26.314497 0 0 0 0.4222,-0.10129 z m 6.1123,-2.18487 a 6.9407964,6.9171848 0 0 0 -0.8408,-0.78549 11.732494,11.692925 0 0 1 -5.2715,2.97036 26.402916,26.314497 0 0 0 6.1123,-2.18487 z m -6.5345,2.28616 a 11.732494,11.692925 0 0 1 -2.4149,0.27078 11.732494,11.692925 0 0 1 -2.713,-0.32866 6.9407964,6.9171848 0 0 0 -0.1958,0.71314 26.402916,26.314497 0 0 0 5.3237,-0.65526 z m -2.4546,-3.41995 a 22.567598,22.491951 0 0 1 -3.1544,0.27492 22.567598,22.491951 0 0 1 -2.2138,-0.19275 10.82495,10.788404 0 0 0 -0.8155,1.74098 11.732494,11.692925 0 0 0 3.5104,1.53892 6.9407964,6.9171848 0 0 1 2.6733,-3.36207 z m -2.8691,4.07521 a 6.9407964,6.9171848 0 0 1 0.1958,-0.71314 11.732494,11.692925 0 0 1 -3.5104,-1.53892 10.82495,10.788404 0 0 0 -0.5803,1.99109 26.402916,26.314497 0 0 0 3.6096,0.28319 26.402916,26.314497 0 0 0 0.2853,-0.0222 z m -3.8949,-0.26097 a 10.82495,10.788404 0 0 1 0.5803,-1.99109 11.732494,11.692925 0 0 1 -2.8194,-2.40554 22.567598,22.491951 0 0 1 -1.3601,-0.36328 15.732732,15.679844 0 0 0 -1.2599,3.62716 26.402916,26.314497 0 0 0 3.4582,0.8816 v 0 a 26.402916,26.314497 0 0 0 1.4009,0.25115 z m 1.3958,-3.73207 a 22.567598,22.491951 0 0 1 -3.6349,-0.66456 11.732494,11.692925 0 0 0 2.8194,2.40554 10.82495,10.788404 0 0 1 0.8155,-1.74098 z m -7.9106,1.91616 a 26.402916,26.314497 0 0 0 1.2821,0.52917 v 0 a 26.402916,26.314497 0 0 0 0.3736,0.15399 15.732732,15.679844 0 0 1 1.2599,-3.62716 22.567598,22.491951 0 0 1 -3.4164,-1.48674 19.466665,19.401344 0 0 0 -0.8645,2.27583 16.741463,16.685215 0 0 0 1.3653,2.15491 z m -1.7953,-0.74156 a 26.402916,26.314497 0 0 0 1.7953,0.74156 16.741463,16.685215 0 0 1 -1.3653,-2.15491 19.466665,19.401344 0 0 0 -0.43,1.41335 z m 6.9092,2.30632 a 26.402916,26.314497 0 0 1 -3.4582,-0.8816 15.732732,15.679844 0 0 0 -0.1153,1.16376 16.741463,16.685215 0 0 0 3.5637,2.60449 z m -3.8318,-1.03559 v 1.02423 a 16.741463,16.685215 0 0 0 0.2609,0.29352 15.732732,15.679844 0 0 1 0.1153,-1.16376 26.402916,26.314497 0 0 1 -0.3736,-0.15399 z m 0.2583,1.31775 a 16.741463,16.685215 0 0 1 -0.2609,-0.29352 l -0.013,5.15265 a 20.723143,20.653635 0 0 0 0.4604,0.32143 15.732732,15.679844 0 0 1 -0.3731,-3.29179 15.732732,15.679844 0 0 1 0.1865,-1.88877 z m 3.5637,2.60449 a 16.741463,16.685215 0 0 1 -3.5637,-2.60449 15.732732,15.679844 0 0 0 -0.1865,1.88877 15.732732,15.679844 0 0 0 0.3731,3.29179 20.723143,20.653635 0 0 0 3.3616,1.84898 z m -3.3771,2.57607 a 20.723143,20.653635 0 0 1 -0.4604,-0.32143 l -0.019,7.78092 4.4411,0.005 a 15.732732,15.679844 0 0 1 -3.9615,-7.46414 z m 3.3616,1.84898 a 20.723143,20.653635 0 0 1 -3.3616,-1.84898 15.732732,15.679844 0 0 0 3.9615,7.46414 l 11.2371,0.0114 a 10.82495,10.788404 0 0 1 -8.0352,-3.84214 l -3.808,-0.004 v 0 0 z m 3.8018,1.78439 a 10.82495,10.788404 0 0 0 8.0352,3.84214 l 0.3188,5.2e-4 a 10.82495,10.788404 0 0 0 8.0248,-3.82561 z m 16.3788,0.0171 c 1.439,-1.69468 2.3184,-3.79056 2.5182,-6.0017 -1.7685,1.73079 -3.8341,3.13135 -6.0988,4.13515 -1.254,1.15772 -2.8926,1.81352 -4.6018,1.84175 -0.4529,-0.0268 8.1824,0.0248 8.1824,0.0248 z m 2.5182,-6.00175 a 10.82495,10.788404 0 0 0 0.124,-0.94051 10.82495,10.788404 0 0 0 -0.8743,-4.22248 16.741463,16.685215 0 0 1 -3.0841,3.26853 6.9407964,6.9171848 0 0 1 0.074,0.95395 6.9407964,6.9171848 0 0 1 -2.3388,5.07566 20.723143,20.653635 0 0 0 6.0988,-4.13515 z m -2.1812,-7.57938 a 26.402916,26.314497 0 0 1 -3.3383,2.03864 6.9407964,6.9171848 0 0 1 1.6851,3.64628 16.741463,16.685215 0 0 0 3.0841,-3.26853 10.82495,10.788404 0 0 0 -1.4309,-2.41639 z m 2.853,22.31492 -11.206,-0.0124 a 15.732732,15.679844 0 0 1 -0.1669,0.0165 15.732732,15.679844 0 0 1 -0.1706,-0.0165 l -11.2318,-0.0124 a 19.466665,19.401344 0 0 0 11.2825,3.73828 l 0.2377,5.1e-4 a 19.466665,19.401344 0 0 0 11.2551,-3.71398 z m 4.809,-4.89169 -4.8033,-0.005 a 15.732732,15.679844 0 0 1 -11.2117,4.88445 l 11.206,0.0124 a 19.466665,19.401344 0 0 0 4.809,-4.89169 z m -2.1549,-3.83595 a 15.732732,15.679844 0 0 1 -2.6484,3.83078 l 4.8033,0.005 a 19.466665,19.401344 0 0 0 1.9467,-3.83181 z m 0,0 4.1016,0.004 a 19.466665,19.401344 0 0 0 1.3384,-6.95255 19.466665,19.401344 0 0 0 -2.8453,-10.08052 20.723143,20.653635 0 0 1 -1.7115,5.10821 15.732732,15.679844 0 0 1 0.8227,4.97231 15.732732,15.679844 0 0 1 -1.7059,6.94841 z m -1.3921,-17.37413 a 26.402916,26.314497 0 0 1 -0.4486,0.524 15.732732,15.679844 0 0 1 0.2098,0.25993 16.741463,16.685215 0 0 0 0.2388,-0.78393 z m -32.8549,-6.24096 a 16.741463,16.685215 0 0 1 1.465,-4.34961 13.774432,13.728065 0 0 1 -1.7378,-4.78627 20.723143,20.653635 0 0 0 -2.5859,4.6545 17.516205,17.457378 0 0 0 2.8587,4.48138 z m 1.465,-4.34961 a 16.741463,16.685215 0 0 1 14.965,-9.40304 v 0 a 16.741463,16.685215 0 0 1 0.022,-0.002 16.741463,16.685215 0 0 1 0.065,0.002 l 10.2831,0.005 a 13.774432,13.728065 0 0 0 -0.3297,-1.39991 20.723143,20.653635 0 0 0 -9.9451,-2.57349 h -0.099 a 20.723143,20.653635 0 0 0 -16.6992,8.58552 13.774432,13.728065 0 0 0 1.7378,4.78627 z m -1.465,4.34961 a 17.516205,17.457378 0 0 0 4.8323,3.92586 11.732494,11.692925 0 0 1 -0.1127,-0.99529 11.732494,11.692925 0 0 1 0.4853,-3.1471 13.774432,13.728065 0 0 1 -3.7399,-4.13308 16.741463,16.685215 0 0 0 -1.465,4.34961 z m 26.7999,-13.748 1.8743,10e-4 a 20.723143,20.653635 0 0 0 -2.204,-1.40094 13.774432,13.728065 0 0 1 0.3297,1.39991 z m 10.1855,13.92421 a 20.723143,20.653635 0 0 0 -1.8656,-6.20323 22.567598,22.491951 0 0 1 -2.2334,5.80894 16.741463,16.685215 0 0 1 0.2816,2.40296 19.466665,19.401344 0 0 1 1.6588,1.65933 26.402916,26.314497 0 0 0 2.1586,-3.668 z m -4.099,-0.39429 a 22.567598,22.491951 0 0 1 -0.9431,1.40199 19.466665,19.401344 0 0 1 1.2247,1.00097 16.741463,16.685215 0 0 0 -0.2816,-2.40296 z m -31.118,10.99416 a 19.466665,19.401344 0 0 1 0.8645,-2.27583 22.567598,22.491951 0 0 1 -2.3487,-1.48518 16.741463,16.685215 0 0 0 1.4842,3.76101 z m -5.0121,-1.60817 a 26.402916,26.314497 0 0 0 2.651,1.8557 v 0 a 26.402916,26.314497 0 0 0 1.9311,1.16582 19.466665,19.401344 0 0 1 0.43,-1.41335 16.741463,16.685215 0 0 1 -1.4842,-3.76101 22.567598,22.491951 0 0 1 -4.5475,-4.1739 20.723143,20.653635 0 0 0 -0.01,0.0894 20.723143,20.653635 0 0 0 1.0273,6.23734 z m 0,0 a 20.723143,20.653635 0 0 0 2.6453,5.36505 l 0.01,-3.50935 a 26.402916,26.314497 0 0 1 -2.651,-1.8557 z m 30.1325,-31.41307 a 17.516205,17.457378 0 0 0 -2.7931,-2.74505 v 0 a 17.516205,17.457378 0 0 0 -10.8371,-3.75119 17.516205,17.457378 0 0 0 -17.5162,17.45733 17.516205,17.457378 0 0 0 1.3989,6.80269 20.723143,20.653635 0 0 1 2.5859,-4.6545 13.774432,13.728065 0 0 1 -0.2429,-2.14819 13.774432,13.728065 0 0 1 13.7743,-13.72836 13.774432,13.728065 0 0 1 10.9647,5.43274 z m -13.6307,-15.35358 a 26.402916,26.314497 0 0 0 -26.403,26.31467 26.402916,26.314497 0 0 0 8.7426,19.466 v 0 a 26.402916,26.314497 0 0 0 1.1586,0.98598 20.723143,20.653635 0 0 1 -1.0273,-6.23734 20.723143,20.653635 0 0 1 0.01,-0.0894 22.567598,22.491951 0 0 1 -5.0462,-14.12524 22.567598,22.491951 0 0 1 22.5676,-22.49216 22.567598,22.491951 0 0 1 14.4911,5.26324 v 0 a 22.567598,22.491951 0 0 1 2.7167,2.69131 l 2.7171,-2.71715 a 26.402916,26.314497 0 0 0 -19.9249,-9.05991 z m 13.6307,15.35358 3.5771,-3.57652 a 22.567598,22.491951 0 0 0 -2.7167,-2.69131 l -3.6535,3.52278 a 17.516205,17.457378 0 0 1 2.7931,2.74505 z m -1.4728,4.52789 -8.8909,-0.004 a 20.723143,20.653635 0 0 1 9.9451,2.57349 13.774432,13.728065 0 0 0 -1.0542,-2.56936 z m 3.2582,3.9703 1.9229,5.2e-4 a 17.516205,17.457378 0 0 0 -1.065,-3.96927 l -4.1161,-0.002 a 13.774432,13.728065 0 0 1 1.0542,2.56936 20.723143,20.653635 0 0 1 2.204,1.40094 z m 1.9229,5.2e-4 5.087,0.003 a 22.567598,22.491951 0 0 0 -0.8066,-3.96978 l -5.3454,-0.002 a 17.516205,17.457378 0 0 1 1.065,3.96927 z m 8.2543,-3.96513 -3.9739,-0.002 a 22.567598,22.491951 0 0 1 0.8066,3.96978 l 3.8525,0.002 a 26.402916,26.314497 0 0 0 -0.6852,-3.96926 z m 0.6852,3.96926 -3.8525,-0.002 a 22.567598,22.491951 0 0 1 0.1416,2.4598 22.567598,22.491951 0 0 1 -0.7059,5.25705 20.723143,20.653635 0 0 1 1.8656,6.20323 26.402916,26.314497 0 0 0 2.668,-11.36261 l 5e-4,-0.35915 a 26.402916,26.314497 0 0 0 -0.1173,-2.19677 z m -0.6852,-3.96926 a 26.402916,26.314497 0 0 1 0.6852,3.96926 h 0.1189 v -3.96926 z m -18.7513,53.76778 a 19.466665,19.401344 0 0 1 -11.2825,-3.73828 l -9.446,-0.0103 v 0 0 l 0.03,-17.77463 a 20.723143,20.653635 0 0 1 -2.6453,-5.36505 26.402916,26.314497 0 0 1 -1.1586,-0.98598 l -0.036,27.84946 z" /></g><g
               id="g402"
               style="stroke:#ffffff;stroke-width:0.169447;stroke-dasharray:none;stroke-opacity:1"
               transform="translate(-0.01640747)"><g
                 id="g393"
                 style="stroke:#ffffff;stroke-width:0.169447;stroke-dasharray:none;stroke-opacity:1" /><g
                 id="g401"
                 style="stroke:#ffffff;stroke-width:0.169447;stroke-dasharray:none;stroke-opacity:1"><path
                   id="path396"
                   style="font-variation-settings:'wght' 700;fill:#22bf34;fill-opacity:1;stroke:none;stroke-width:0.169447;stroke-dasharray:none;stroke-opacity:1"
                   d="m 6148.8298,-698.84932 0.097,0.25114 0.1344,-0.1633 z m -2.4799,3.0737 a 15.732732,15.679844 0 0 0 -0.5721,-0.16226 7.9621816,7.9351683 0 0 1 0.081,0.5643 17.516205,17.457378 0 0 0 0.4914,-0.40204 z m -16.569,-0.25476 a 13.774432,13.728065 0 0 0 0.3576,0.12505 7.9621816,7.9351683 0 0 1 0.062,-0.4687 19.466665,19.401344 0 0 0 -0.4196,0.34365 z m -2.8996,2.78949 a 17.516205,17.457378 0 0 0 3.6556,1.37201 7.9621816,7.9351683 0 0 1 -0.5664,-2.76366 7.9621816,7.9351683 0 0 1 0.168,-1.27279 13.774432,13.728065 0 0 1 -0.3576,-0.12505 19.466665,19.401344 0 0 0 -2.8996,2.78949 z m 3.6732,1.37718 a 15.732732,15.679844 0 0 1 4.7516,-3.22565 13.774432,13.728065 0 0 1 -0.5669,0.0636 13.774432,13.728065 0 0 1 -4.6007,-0.87954 7.9621816,7.9351683 0 0 0 -0.168,1.27279 7.9621816,7.9351683 0 0 0 0.5664,2.76366 17.516205,17.457378 0 0 0 0.018,0.005 z m 15.304,-3.50987 a 7.9621816,7.9351683 0 0 0 -0.081,-0.5643 15.732732,15.679844 0 0 0 -4.0772,-0.54467 15.732732,15.679844 0 0 0 -0.9839,0.0966 13.774432,13.728065 0 0 1 -5.4106,1.29656 15.732732,15.679844 0 0 0 -4.7516,3.22565 17.516205,17.457378 0 0 0 4.1847,0.5674 17.516205,17.457378 0 0 0 11.1193,-4.07727 z m -5.1418,-1.01234 a 15.732732,15.679844 0 0 1 0.9839,-0.0966 15.732732,15.679844 0 0 1 4.0772,0.54467 7.9621816,7.9351683 0 0 0 -1.3105,-3.21893 13.774432,13.728065 0 0 1 -3.7506,2.77089 z m 4.4777,-3.49539 a 13.774432,13.728065 0 0 1 -0.7271,0.7245 7.9621816,7.9351683 0 0 1 1.3105,3.21893 15.732732,15.679844 0 0 1 0.5721,0.16226 17.516205,17.457378 0 0 0 2.5771,-2.82205 11.732494,11.692925 0 0 0 -0.098,-0.25011 19.466665,19.401344 0 0 0 -3.6344,-1.03353 z m -18.3131,6.64042 a 19.466665,19.401344 0 0 1 2.8996,-2.78949 13.774432,13.728065 0 0 1 -3.0954,-1.65572 11.732494,11.692925 0 0 0 -0.4853,3.1471 11.732494,11.692925 0 0 0 0.1127,0.99529 17.516205,17.457378 0 0 0 0.5684,0.30282 z m 2.8996,-2.78949 a 19.466665,19.401344 0 0 1 0.4196,-0.34365 7.9621816,7.9351683 0 0 1 7.598,-6.17637 v 0 a 7.9621816,7.9351683 0 0 1 0.1343,-0.0176 7.9621816,7.9351683 0 0 1 0.9344,0.061 l 7.8971,0.32039 a 13.774432,13.728065 0 0 0 0.014,-0.0207 11.732494,11.692925 0 0 0 -8.845,-4.02507 11.732494,11.692925 0 0 0 -11.2473,8.54624 13.774432,13.728065 0 0 0 3.0954,1.65572 z m 15.4135,-3.85093 a 19.466665,19.401344 0 0 1 3.6344,1.03353 11.732494,11.692925 0 0 0 -2.0319,-3.33727 l -0.033,-0.002 a 13.774432,13.728065 0 0 1 -1.5699,2.30529 z m 3.6344,1.03353 a 19.466665,19.401344 0 0 1 0.232,0.0868 17.516205,17.457378 0 0 0 2.512,-5.44928 16.741463,16.685215 0 0 0 -1.7001,-2.01176 l -1.6449,-0.002 a 13.774432,13.728065 0 0 1 -1.45,4.01629 11.732494,11.692925 0 0 1 0.019,0.0222 v 0 a 11.732494,11.692925 0 0 1 2.0319,3.33727 z m -2.051,-3.35949 a 13.774432,13.728065 0 0 0 1.45,-4.01629 l -10.2893,-0.009 a 11.732494,11.692925 0 0 1 8.8393,4.02507 z m 3.0949,-4.01474 a 16.741463,16.685215 0 0 1 1.7001,2.01176 17.516205,17.457378 0 0 0 0.4326,-2.00969 z" /></g></g></g></g></g></g></g></svg>
